# xmcd
#
# Track frame offsets:
#	150
#	11682
#	26390
#	39202
#	52517
#	62835
#	75427
#	86055
#	95047
#	106825
#	118717
#	129612
#	138582
#	150367
#	160630
#	170262
#	180607
#	194175
#	208840
#	222170
#	236117
#	246720
#
# Disc length: 3452 seconds
#
# Revision: 0
# Processed by: cddbd v1.4PL0 Copyright (c) Steve Scherf et al.
# Submitted via: audiograbber 1.80
#
DISCID=2a0d7a16
DTITLE=Johnny Horton and Don Gibson - Country No.1's
DYEAR=1900
DGENRE=
TTITLE0=Johnny Horton - The Battle Of New Orleans
TTITLE1=Johnny Horton - Sink The Bismarck
TTITLE2=Johnny Horton - North To Alaska
TTITLE3=Johnny Horton - Whispering Pines
TTITLE4=Johnny Horton - The Sinking Of The Ruben James
TTITLE5=Johnny Horton - All For The Love Of A Girl
TTITLE6=Johnny Horton - Johnny Reb
TTITLE7=Johnny Horton - The Golden Rocket
TTITLE8=Johnny Horton - The Battle Of Bull Run
TTITLE9=Johnny Horton - When Its Springtime In Alaska
TTITLE10=Johnny Horton - The First Train Heading South
TTITLE11=Don Gibson - Blue Blue Day
TTITLE12=Don Gibson - Oh Lonesome Me
TTITLE13=Don Gibson - Sea Of Heartbreak
TTITLE14=Don Gibson - Take These Chains From My Heart
TTITLE15=Don Gibson - Lonesome Number One
TTITLE16=Don Gibson - Release Me
TTITLE17=Don Gibson - I Can't Stop Loving You
TTITLE18=Don Gibson - There Goes My Everything
TTITLE19=Don Gibson - Touch The Morning
TTITLE20=Don Gibson - Funny, Familiar, Feelings
TTITLE21=Don Gibson - I'm All Wrapped Up In You
EXTD=22 Country Classics
EXTT0=
EXTT1=
EXTT2=
EXTT3=
EXTT4=
EXTT5=
EXTT6=
EXTT7=
EXTT8=
EXTT9=
EXTT10=
EXTT11=
EXTT12=
EXTT13=
EXTT14=
EXTT15=
EXTT16=
EXTT17=
EXTT18=
EXTT19=
EXTT20=
EXTT21=
PLAYORDER=
